<?xml version="1.0" standalone="no"?>
<!DOCTYPE svg PUBLIC "-//W3C//DTD SVG 20010904//EN"
 "http://www.w3.org/TR/2001/REC-SVG-20010904/DTD/svg10.dtd">
<svg version="1.0" xmlns="http://www.w3.org/2000/svg"
 width="267.000000pt" height="267.000000pt" viewBox="0 0 267.000000 267.000000"
 preserveAspectRatio="xMidYMid meet">
<metadata>
Created by potrace 1.15, written by Peter Selinger 2001-2017
</metadata>
<g transform="translate(0.000000,267.000000) scale(0.100000,-0.100000)"
fill="#000000" stroke="none">
<path d="M667 1752 c-26 -26 -47 -52 -47 -58 0 -5 32 -48 72 -94 57 -68 235
-287 281 -348 14 -17 1 -25 -83 -53 -75 -25 -527 -186 -612 -219 -32 -12 -58
-25 -58 -30 0 -5 15 -13 33 -19 46 -16 288 -50 405 -57 93 -6 105 -5 228 31
272 79 1368 438 1576 517 88 33 141 72 181 130 63 95 12 158 -128 158 -76 0
-148 -20 -536 -149 l-356 -118 -449 179 c-246 98 -451 178 -454 178 -3 0 -27
-22 -53 -48z"/>
<path d="M33 1264 c-18 -14 -33 -31 -33 -38 0 -13 141 -187 177 -219 20 -17
25 -16 149 29 71 25 135 49 142 53 13 8 -361 201 -388 201 -8 0 -30 -12 -47
-26z"/>
</g>
</svg>
