<?xml version="1.0" standalone="no"?>
<!DOCTYPE svg PUBLIC "-//W3C//DTD SVG 20010904//EN"
 "http://www.w3.org/TR/2001/REC-SVG-20010904/DTD/svg10.dtd">
<svg version="1.0" xmlns="http://www.w3.org/2000/svg"
 width="413.000000pt" height="269.000000pt" viewBox="0 0 413.000000 269.000000"
 preserveAspectRatio="xMidYMid meet">
<metadata>
Created by potrace 1.15, written by Peter Selinger 2001-2017
</metadata>
<g transform="translate(0.000000,269.000000) scale(0.100000,-0.100000)"
fill="#000000" stroke="none">
<path d="M2160 2660 c0 -4 9 -15 21 -26 12 -10 50 -63 85 -117 l65 -98 26 21
c28 22 93 94 93 104 0 9 -84 55 -148 81 -69 28 -142 46 -142 35z"/>
<path d="M1954 2577 c-53 -58 -109 -151 -99 -166 8 -14 111 -51 139 -51 22 0
25 6 31 61 8 68 -2 209 -15 209 -4 0 -30 -24 -56 -53z"/>
<path d="M2099 2608 c-1 -2 -4 -58 -8 -126 l-6 -122 38 0 c53 0 128 20 134 36
10 27 -115 214 -142 214 -8 0 -16 -1 -16 -2z"/>
<path d="M1588 2442 c-83 -98 -148 -247 -148 -337 l0 -46 133 3 132 3 6 75 c4
41 16 113 28 159 l22 84 -28 29 c-15 17 -44 43 -63 58 l-36 28 -46 -56z"/>
<path d="M2432 2433 c-39 -32 -73 -63 -75 -69 -3 -6 1 -37 9 -70 7 -32 19 -98
25 -146 l12 -88 149 0 150 0 -7 66 c-10 94 -28 147 -80 239 -49 85 -81 125
-101 125 -7 0 -44 -26 -82 -57z"/>
<path d="M1801 2298 c-27 -131 -40 -223 -33 -230 5 -5 65 -7 133 -6 l124 3 3
114 c3 125 1 131 -54 131 -17 0 -57 9 -89 20 -32 11 -62 20 -66 20 -4 0 -12
-24 -18 -52z"/>
<path d="M2210 2315 c-25 -7 -62 -16 -83 -20 l-38 -6 3 -112 3 -112 124 -3
124 -3 -7 64 c-7 75 -32 175 -48 194 -12 15 -19 15 -78 -2z"/>
<path d="M1443 1950 c13 -117 88 -280 165 -353 l29 -28 62 52 c55 46 62 55 56
78 -18 68 -45 209 -45 236 -1 76 2 75 -143 75 l-130 0 6 -60z"/>
<path d="M1770 2000 c-12 -8 -11 -25 9 -129 13 -66 28 -127 35 -136 11 -15 21
-14 114 11 l102 27 0 119 0 118 -122 0 c-68 0 -130 -4 -138 -10z"/>
<path d="M2092 1893 l3 -117 75 -18 c127 -29 124 -30 144 59 9 42 19 103 23
135 l6 58 -127 0 -127 0 3 -117z"/>
<path d="M2395 1943 c-4 -38 -16 -106 -26 -153 l-20 -85 38 -33 c21 -18 58
-50 82 -70 l44 -37 29 35 c93 108 145 227 150 345 l3 60 -147 3 -146 3 -7 -68z"/>
<path d="M230 1823 c-96 -2 -181 -5 -188 -8 -9 -3 10 -31 54 -80 l67 -75 392
0 c390 0 515 -5 515 -21 0 -17 -58 -21 -452 -27 l-403 -7 69 -73 69 -72 435 0
c434 1 474 -2 444 -32 -10 -10 -110 -14 -412 -16 -268 -2 -400 -6 -400 -13 0
-12 27 -48 76 -101 l34 -37 427 -1 c363 0 430 -3 442 -15 37 -37 6 -40 -410
-43 l-400 -3 72 -79 72 -80 466 0 c298 0 480 4 504 11 43 12 111 68 133 110
38 74 4 122 -141 196 -91 46 -124 70 -191 137 -82 82 -163 204 -186 278 -9 31
-16 38 -42 42 -39 6 -812 12 -1046 9z"/>
<path d="M2843 1818 c-5 -7 -24 -47 -43 -88 -84 -182 -172 -278 -335 -361 -58
-30 -121 -66 -138 -80 -28 -24 -32 -33 -32 -77 0 -41 6 -57 31 -89 37 -45 67
-61 137 -73 28 -5 253 -9 498 -9 l446 -1 67 77 67 78 -388 5 c-213 3 -394 9
-400 13 -23 15 -14 34 18 41 17 3 212 6 433 6 l402 0 59 66 c43 49 55 68 45
74 -7 4 -190 10 -406 12 -276 2 -396 6 -404 14 -9 9 -8 14 2 20 7 5 210 11
450 14 l438 5 62 62 c34 34 59 66 54 70 -4 4 -192 10 -416 13 -316 4 -412 8
-422 18 -10 10 -10 15 2 22 9 6 199 10 461 10 l446 0 64 75 c35 42 66 80 67
85 6 16 -1253 13 -1265 -2z"/>
<path d="M1931 1689 c-90 -32 -92 -37 -38 -119 34 -51 117 -140 131 -140 14 0
1 247 -14 265 -15 18 -12 18 -79 -6z"/>
<path d="M2097 1704 c-4 -4 -7 -66 -7 -138 l0 -130 45 44 c54 53 125 156 125
181 0 12 -13 20 -47 28 -89 19 -109 22 -116 15z"/>
<path d="M2291 1583 c-19 -32 -54 -83 -78 -114 -24 -30 -43 -59 -43 -63 0 -26
238 69 270 109 14 16 10 22 -44 71 -33 30 -62 54 -65 54 -4 0 -22 -26 -40 -57z"/>
<path d="M746 865 c-7 -19 -116 -788 -116 -820 0 -21 6 -24 57 -31 54 -6 230
0 240 9 6 6 123 815 123 850 0 4 -67 7 -149 7 -124 0 -150 -3 -155 -15z"/>
<path d="M1387 823 c-14 -32 -39 -92 -55 -133 -17 -41 -67 -160 -113 -265 -45
-104 -104 -239 -130 -300 -26 -60 -46 -111 -44 -114 2 -2 70 0 149 4 l146 7
21 59 c20 55 24 59 53 59 17 0 68 3 114 7 l82 6 0 -50 c0 -84 6 -87 174 -91
l146 -4 0 36 c0 64 -114 813 -125 824 -4 4 -93 8 -199 10 l-193 3 -26 -58z"/>
<path d="M2088 873 c-19 -3 -30 -12 -33 -26 -5 -24 -25 -173 -25 -188 0 -5 40
-9 89 -9 50 0 92 -4 95 -8 2 -4 -15 -147 -40 -317 -24 -171 -44 -311 -44 -312
0 -8 300 -1 305 7 3 5 24 137 45 292 22 156 45 296 51 311 l12 29 83 -7 c97
-8 98 -8 108 100 4 39 9 85 12 103 l5 32 -318 -1 c-175 -1 -330 -4 -345 -6z"/>
<path d="M2991 859 c-5 -13 -86 -205 -181 -427 -94 -222 -169 -407 -165 -410
4 -4 69 -8 145 -10 l138 -3 23 71 24 72 101 -4 c124 -4 134 -11 134 -84 l0
-54 161 0 161 0 -7 43 c-4 23 -33 214 -64 424 -31 210 -59 384 -61 387 -3 2
-94 8 -202 12 l-197 7 -10 -24z"/>
</g>
</svg>
